0
SECTION
2
HEADER
9
$INSUNITS
70
4
0
ENDSEC
0
SECTION
2
TABLES
0
TABLE
2
LTYPE
0
LTYPE
72
65
70
64
2
CONTINUOUS
3
______
73
0
40
0
0
ENDTAB
0
TABLE
2
LAYER
0
ENDTAB
0
ENDSEC
0
SECTION
2
ENTITIES
0
LINE
8
0
10
-8
20
9.88
11
8
21
9.88
0
ARC
8
0
10
8
20
11.88
40
2
50
270
51
360
0
LINE
8
0
10
10
20
11.88
11
10
21
26.88
0
ARC
8
0
10
8
20
26.88
40
2
50
0
51
90
0
LINE
8
0
10
8
20
28.88
11
-8
21
28.88
0
ARC
8
0
10
-8
20
26.88
40
2
50
90
51
180
0
LINE
8
0
10
-10
20
26.88
11
-10
21
11.88
0
ARC
8
0
10
-8
20
11.88
40
2
50
180
51
270
0
LINE
8
0
10
-8
20
29.26
11
8
21
29.26
0
ARC
8
0
10
8
20
31.26
40
2
50
270
51
360
0
LINE
8
0
10
10
20
31.26
11
10
21
46.26
0
ARC
8
0
10
8
20
46.26
40
2
50
0
51
90
0
LINE
8
0
10
8
20
48.26
11
-8
21
48.26
0
ARC
8
0
10
-8
20
46.26
40
2
50
90
51
180
0
LINE
8
0
10
-10
20
46.26
11
-10
21
31.26
0
ARC
8
0
10
-8
20
31.26
40
2
50
180
51
270
0
LINE
8
0
10
-8
20
48.64
11
8
21
48.64
0
ARC
8
0
10
8
20
50.64
40
2
50
270
51
360
0
LINE
8
0
10
10
20
50.64
11
10
21
65.64
0
ARC
8
0
10
8
20
65.64
40
2
50
0
51
90
0
LINE
8
0
10
8
20
67.64
11
-8
21
67.64
0
ARC
8
0
10
-8
20
65.64
40
2
50
90
51
180
0
LINE
8
0
10
-10
20
65.64
11
-10
21
50.64
0
ARC
8
0
10
-8
20
50.64
40
2
50
180
51
270
0
LINE
8
0
10
12.52
20
10.05
11
28.52
21
10.05
0
ARC
8
0
10
28.52
20
12.05
40
2
50
270
51
360
0
LINE
8
0
10
30.52
20
12.05
11
30.52
21
27.05
0
ARC
8
0
10
28.52
20
27.05
40
2
50
0
51
90
0
LINE
8
0
10
28.52
20
29.05
11
12.52
21
29.05
0
ARC
8
0
10
12.52
20
27.05
40
2
50
90
51
180
0
LINE
8
0
10
10.52
20
27.05
11
10.52
21
12.05
0
ARC
8
0
10
12.52
20
12.05
40
2
50
180
51
270
0
LINE
8
0
10
12.52
20
29.43
11
28.52
21
29.43
0
ARC
8
0
10
28.52
20
31.43
40
2
50
270
51
360
0
LINE
8
0
10
30.52
20
31.43
11
30.52
21
46.43
0
ARC
8
0
10
28.52
20
46.43
40
2
50
0
51
90
0
LINE
8
0
10
28.52
20
48.43
11
12.52
21
48.43
0
ARC
8
0
10
12.52
20
46.43
40
2
50
90
51
180
0
LINE
8
0
10
10.52
20
46.43
11
10.52
21
31.43
0
ARC
8
0
10
12.52
20
31.43
40
2
50
180
51
270
0
LINE
8
0
10
12.52
20
48.81
11
28.52
21
48.81
0
ARC
8
0
10
28.52
20
50.81
40
2
50
270
51
360
0
LINE
8
0
10
30.52
20
50.81
11
30.52
21
65.81
0
ARC
8
0
10
28.52
20
65.81
40
2
50
0
51
90
0
LINE
8
0
10
28.52
20
67.81
11
12.52
21
67.81
0
ARC
8
0
10
12.52
20
65.81
40
2
50
90
51
180
0
LINE
8
0
10
10.52
20
65.81
11
10.52
21
50.81
0
ARC
8
0
10
12.52
20
50.81
40
2
50
180
51
270
0
LINE
8
0
10
12.52
20
68.19
11
28.52
21
68.19
0
ARC
8
0
10
28.52
20
70.19
40
2
50
270
51
360
0
LINE
8
0
10
30.52
20
70.19
11
30.52
21
85.19
0
ARC
8
0
10
28.52
20
85.19
40
2
50
0
51
90
0
LINE
8
0
10
28.52
20
87.19
11
12.52
21
87.19
0
ARC
8
0
10
12.52
20
85.19
40
2
50
90
51
180
0
LINE
8
0
10
10.52
20
85.19
11
10.52
21
70.19
0
ARC
8
0
10
12.52
20
70.19
40
2
50
180
51
270
0
LINE
8
0
10
32.8754206
20
16.9910661
11
48.8729837
21
16.7118276
0
ARC
8
0
10
48.9078885
20
18.711523
40
2
50
269
51
359
0
LINE
8
0
10
50.9075839
20
18.6766182
11
51.16937
21
33.6743336
0
ARC
8
0
10
49.1696746
20
33.7092385
40
2
50
359
51
89
0
LINE
8
0
10
49.2045794
20
35.7089339
11
33.2070163
21
35.9881724
0
ARC
8
0
10
33.1721115
20
33.988477
40
2
50
89
51
179
0
LINE
8
0
10
31.1724161
20
34.0233818
11
30.91063
21
19.0256664
0
ARC
8
0
10
32.9103254
20
18.9907615
40
2
50
179
51
269
0
LINE
8
0
10
33.2136482
20
36.3681144
11
49.2112113
21
36.0888759
0
ARC
8
0
10
49.2461161
20
38.0885713
40
2
50
269
51
359
0
LINE
8
0
10
51.2458115
20
38.0536665
11
51.5075976
21
53.0513819
0
ARC
8
0
10
49.5079022
20
53.0862868
40
2
50
359
51
89
0
LINE
8
0
10
49.542807
20
55.0859822
11
33.5452439
21
55.3652207
0
ARC
8
0
10
33.5103391
20
53.3655253
40
2
50
89
51
179
0
LINE
8
0
10
31.5106437
20
53.4004301
11
31.2488576
21
38.4027147
0
ARC
8
0
10
33.248553
20
38.3678098
40
2
50
179
51
269
0
LINE
8
0
10
33.5518758
20
55.7451627
11
49.5494389
21
55.4659242
0
ARC
8
0
10
49.5843437
20
57.4656196
40
2
50
269
51
359
0
LINE
8
0
10
51.5840391
20
57.4307148
11
51.8458252
21
72.4284302
0
ARC
8
0
10
49.8461298
20
72.4633351
40
2
50
359
51
89
0
LINE
8
0
10
49.8810346
20
74.4630305
11
33.8834715
21
74.742269
0
ARC
8
0
10
33.8485667
20
72.7425736
40
2
50
89
51
179
0
LINE
8
0
10
31.8488713
20
72.7774784
11
31.5870852
21
57.779763
0
ARC
8
0
10
33.5867806
20
57.7448581
40
2
50
179
51
269
0
LINE
8
0
10
33.8901034
20
75.122211
11
49.8876665
21
74.8429725
0
ARC
8
0
10
49.9225713
20
76.8426679
40
2
50
269
51
359
0
LINE
8
0
10
51.9222667
20
76.8077631
11
52.1840528
21
91.8054785
0
ARC
8
0
10
50.1843574
20
91.8403834
40
2
50
359
51
89
0
LINE
8
0
10
50.2192622
20
93.8400788
11
34.2216991
21
94.1193173
0
ARC
8
0
10
34.1867943
20
92.1196219
40
2
50
89
51
179
0
LINE
8
0
10
32.1870989
20
92.1545267
11
31.9253128
21
77.1568113
0
ARC
8
0
10
33.9250082
20
77.1219064
40
2
50
179
51
269
0
LINE
8
0
10
53.1893232
20
23.722548
11
69.1673958
21
22.8851727
0
ARC
8
0
10
69.2720677
20
24.8824317
40
2
50
267
51
357
0
LINE
8
0
10
71.2693268
20
24.7777598
11
72.0543661
21
39.7572028
0
ARC
8
0
10
70.057107
20
39.8618748
40
2
50
357
51
87
0
LINE
8
0
10
70.161779
20
41.8591338
11
54.1837064
21
42.6965091
0
ARC
8
0
10
54.0790345
20
40.6992501
40
2
50
87
51
177
0
LINE
8
0
10
52.0817754
20
40.803922
11
51.2967361
21
25.824479
0
ARC
8
0
10
53.2939952
20
25.719807
40
2
50
177
51
267
0
LINE
8
0
10
54.203594
20
43.0759884
11
70.1816666
21
42.2386131
0
ARC
8
0
10
70.2863385
20
44.2358721
40
2
50
267
51
357
0
LINE
8
0
10
72.2835976
20
44.1312002
11
73.0686369
21
59.1106432
0
ARC
8
0
10
71.0713778
20
59.2153152
40
2
50
357
51
87
0
LINE
8
0
10
71.1760498
20
61.2125742
11
55.1979772
21
62.0499495
0
ARC
8
0
10
55.0933053
20
60.0526905
40
2
50
87
51
177
0
LINE
8
0
10
53.0960462
20
60.1573624
11
52.3110069
21
45.1779194
0
ARC
8
0
10
54.308266
20
45.0732474
40
2
50
177
51
267
0
LINE
8
0
10
55.2178648
20
62.4294288
11
71.1959374
21
61.5920535
0
ARC
8
0
10
71.3006093
20
63.5893125
40
2
50
267
51
357
0
LINE
8
0
10
73.2978684
20
63.4846406
11
74.0829077
21
78.4640836
0
ARC
8
0
10
72.0856486
20
78.5687556
40
2
50
357
51
87
0
LINE
8
0
10
72.1903206
20
80.5660146
11
56.212248
21
81.4033899
0
ARC
8
0
10
56.1075761
20
79.4061309
40
2
50
87
51
177
0
LINE
8
0
10
54.110317
20
79.5108028
11
53.3252777
21
64.5313598
0
ARC
8
0
10
55.3225368
20
64.4266878
40
2
50
177
51
267
0
LINE
8
0
10
56.2321356
20
81.7828692
11
72.2102082
21
80.9454939
0
ARC
8
0
10
72.3148801
20
82.9427529
40
2
50
267
51
357
0
LINE
8
0
10
74.3121392
20
82.838081
11
75.0971785
21
97.817524
0
ARC
8
0
10
73.0999194
20
97.922196
40
2
50
357
51
87
0
LINE
8
0
10
73.2045914
20
99.919455
11
57.2265188
21
100.7568303
0
ARC
8
0
10
57.1218469
20
98.7595713
40
2
50
87
51
177
0
LINE
8
0
10
55.1245878
20
98.8642432
11
54.3395485
21
83.8848002
0
ARC
8
0
10
56.3368076
20
83.7801282
40
2
50
177
51
267
0
LINE
8
0
10
73.346288
20
19.40276
11
89.3073128
21
18.2866564
0
ARC
8
0
10
89.4468257
20
20.2817845
40
2
50
266
51
356
0
LINE
8
0
10
91.4419538
20
20.1422716
11
92.488301
21
35.1057323
0
ARC
8
0
10
90.4931729
20
35.2452453
40
2
50
356
51
86
0
LINE
8
0
10
90.6326858
20
37.2403734
11
74.671661
21
38.356477
0
ARC
8
0
10
74.5321481
20
36.3613489
40
2
50
86
51
176
0
LINE
8
0
10
72.53702
20
36.5008618
11
71.4906728
21
21.5374011
0
ARC
8
0
10
73.4858009
20
21.3978881
40
2
50
176
51
266
0
LINE
8
0
10
74.6981685
20
38.7355513
11
90.6591933
21
37.6194477
0
ARC
8
0
10
90.7987062
20
39.6145758
40
2
50
266
51
356
0
LINE
8
0
10
92.7938343
20
39.4750629
11
93.8401815
21
54.4385236
0
ARC
8
0
10
91.8450534
20
54.5780366
40
2
50
356
51
86
0
LINE
8
0
10
91.9845663
20
56.5731647
11
76.0235415
21
57.6892683
0
ARC
8
0
10
75.8840286
20
55.6941402
40
2
50
86
51
176
0
LINE
8
0
10
73.8889005
20
55.8336531
11
72.8425533
21
40.8701924
0
ARC
8
0
10
74.8376814
20
40.7306794
40
2
50
176
51
266
0
LINE
8
0
10
76.050049
20
58.0683426
11
92.0110738
21
56.952239
0
ARC
8
0
10
92.1505867
20
58.9473671
40
2
50
266
51
356
0
LINE
8
0
10
94.1457148
20
58.8078542
11
95.192062
21
73.7713149
0
ARC
8
0
10
93.1969339
20
73.9108279
40
2
50
356
51
86
0
LINE
8
0
10
93.3364468
20
75.905956
11
77.375422
21
77.0220596
0
ARC
8
0
10
77.2359091
20
75.0269315
40
2
50
86
51
176
0
LINE
8
0
10
75.240781
20
75.1664444
11
74.1944338
21
60.2029837
0
ARC
8
0
10
76.1895619
20
60.0634707
40
2
50
176
51
266
0
LINE
8
0
10
77.4019295
20
77.4011339
11
93.3629543
21
76.2850303
0
ARC
8
0
10
93.5024672
20
78.2801584
40
2
50
266
51
356
0
LINE
8
0
10
95.4975953
20
78.1406455
11
96.5439425
21
93.1041062
0
ARC
8
0
10
94.5488144
20
93.2436192
40
2
50
356
51
86
0
LINE
8
0
10
94.6883273
20
95.2387473
11
78.7273025
21
96.3548509
0
ARC
8
0
10
78.5877896
20
94.3597228
40
2
50
86
51
176
0
LINE
8
0
10
76.5926615
20
94.4992357
11
75.5463143
21
79.535775
0
ARC
8
0
10
77.5414424
20
79.396262
40
2
50
176
51
266
0
LINE
8
0
10
93.8163023
20
17.9713572
11
109.7773271
21
16.8552536
0
ARC
8
0
10
109.91684
20
18.8503817
40
2
50
266
51
356
0
LINE
8
0
10
111.9119681
20
18.7108688
11
112.9583153
21
33.6743295
0
ARC
8
0
10
110.9631872
20
33.8138425
40
2
50
356
51
86
0
LINE
8
0
10
111.1027001
20
35.8089706
11
95.1416753
21
36.9250742
0
ARC
8
0
10
95.0021624
20
34.9299461
40
2
50
86
51
176
0
LINE
8
0
10
93.0070343
20
35.069459
11
91.9606871
21
20.1059983
0
ARC
8
0
10
93.9558152
20
19.9664853
40
2
50
176
51
266
0
LINE
8
0
10
95.1681828
20
37.3041485
11
111.1292076
21
36.1880449
0
ARC
8
0
10
111.2687205
20
38.183173
40
2
50
266
51
356
0
LINE
8
0
10
113.2638486
20
38.0436601
11
114.3101958
21
53.0071208
0
ARC
8
0
10
112.3150677
20
53.1466338
40
2
50
356
51
86
0
LINE
8
0
10
112.4545806
20
55.1417619
11
96.4935558
21
56.2578655
0
ARC
8
0
10
96.3540429
20
54.2627374
40
2
50
86
51
176
0
LINE
8
0
10
94.3589148
20
54.4022503
11
93.3125676
21
39.4387896
0
ARC
8
0
10
95.3076957
20
39.2992766
40
2
50
176
51
266
0
LINE
8
0
10
96.5200633
20
56.6369398
11
112.4810881
21
55.5208362
0
ARC
8
0
10
112.620601
20
57.5159643
40
2
50
266
51
356
0
LINE
8
0
10
114.6157291
20
57.3764514
11
115.6620763
21
72.3399121
0
ARC
8
0
10
113.6669482
20
72.4794251
40
2
50
356
51
86
0
LINE
8
0
10
113.8064611
20
74.4745532
11
97.8454363
21
75.5906568
0
ARC
8
0
10
97.7059234
20
73.5955287
40
2
50
86
51
176
0
LINE
8
0
10
95.7107953
20
73.7350416
11
94.6644481
21
58.7715809
0
ARC
8
0
10
96.6595762
20
58.6320679
40
2
50
176
51
266
0
LINE
8
0
10
97.8719438
20
75.9697311
11
113.8329686
21
74.8536275
0
ARC
8
0
10
113.9724815
20
76.8487556
40
2
50
266
51
356
0
LINE
8
0
10
115.9676096
20
76.7092427
11
117.0139568
21
91.6727034
0
ARC
8
0
10
115.0188287
20
91.8122164
40
2
50
356
51
86
0
LINE
8
0
10
115.1583416
20
93.8073445
11
99.1973168
21
94.9234481
0
ARC
8
0
10
99.0578039
20
92.92832
40
2
50
86
51
176
0
LINE
8
0
10
97.0626758
20
93.0678329
11
96.0163286
21
78.1043722
0
ARC
8
0
10
98.0114567
20
77.9648592
40
2
50
176
51
266
0
LINE
8
0
10
120.7505317
20
16.0879324
11
136.7115565
21
14.9718288
0
ARC
8
0
10
136.8510694
20
16.9669569
40
2
50
266
51
356
0
LINE
8
0
10
138.8461975
20
16.827444
11
139.8925447
21
31.7909047
0
ARC
8
0
10
137.8974166
20
31.9304177
40
2
50
356
51
86
0
LINE
8
0
10
138.0369295
20
33.9255458
11
122.0759047
21
35.0416494
0
ARC
8
0
10
121.9363918
20
33.0465213
40
2
50
86
51
176
0
LINE
8
0
10
119.9412637
20
33.1860342
11
118.8949165
21
18.2225735
0
ARC
8
0
10
120.8900446
20
18.0830605
40
2
50
176
51
266
0
LINE
8
0
10
71.9825489
20
-0.0996172
11
87.9435737
21
-1.2157208
0
ARC
8
0
10
88.0830866
20
0.7794073
40
2
50
266
51
356
0
LINE
8
0
10
90.0782147
20
0.6398944
11
91.1245619
21
15.6033551
0
ARC
8
0
10
89.1294338
20
15.7428681
40
2
50
356
51
86
0
LINE
8
0
10
89.2689467
20
17.7379962
11
73.3079219
21
18.8540998
0
ARC
8
0
10
73.168409
20
16.8589717
40
2
50
86
51
176
0
LINE
8
0
10
71.1732809
20
16.9984846
11
70.1269337
21
2.0350239
0
ARC
8
0
10
72.1220618
20
1.8955109
40
2
50
176
51
266
0
LINE
8
0
10
91.706272
20
-2.6588739
11
106.9231763
21
-7.6031459
0
ARC
8
0
10
107.5412103
20
-5.7010328
40
2
50
252
51
342
0
LINE
8
0
10
109.4433233
20
-6.3190668
11
114.0785782
21
7.9467809
0
ARC
8
0
10
112.1764652
20
8.5648149
40
2
50
342
51
72
0
LINE
8
0
10
112.7944992
20
10.4669279
11
97.5775949
21
15.4111999
0
ARC
8
0
10
96.9595609
20
13.5090868
40
2
50
72
51
162
0
LINE
8
0
10
95.0574479
20
14.1271208
11
90.422193
21
-0.1387269
0
ARC
8
0
10
92.324306
20
-0.7567609
40
2
50
162
51
252
0
LINE
8
0
10
125.1539739
20
-18.314917
11
134.3311969
21
-5.2084843
0
ARC
8
0
10
132.6928928
20
-4.0613314
40
2
50
325
51
55
0
LINE
8
0
10
133.8400457
20
-2.4230273
11
121.552765
21
6.1806192
0
ARC
8
0
10
120.4056122
20
4.5423151
40
2
50
55
51
145
0
LINE
8
0
10
118.7673081
20
5.689468
11
109.5900851
21
-7.4169647
0
ARC
8
0
10
111.2283892
20
-8.5641176
40
2
50
145
51
235
0
LINE
8
0
10
110.0812363
20
-10.2024217
11
122.368517
21
-18.8060682
0
ARC
8
0
10
123.5156698
20
-17.1677641
40
2
50
235
51
325
0
LINE
8
0
10
138.9870548
20
-32.6231089
11
150.3007633
21
-21.3094004
0
ARC
8
0
10
148.8865497
20
-19.8951868
40
2
50
315
51
45
0
LINE
8
0
10
150.3007633
20
-18.4809732
11
139.6941616
21
-7.8743715
0
ARC
8
0
10
138.279948
20
-9.2885851
40
2
50
45
51
135
0
LINE
8
0
10
136.8657344
20
-7.8743715
11
125.5520259
21
-19.18808
0
ARC
8
0
10
126.9662395
20
-20.6022936
40
2
50
135
51
225
0
LINE
8
0
10
125.5520259
20
-22.0165072
11
136.1586276
21
-32.6231089
0
ARC
8
0
10
137.5728412
20
-31.2088953
40
2
50
225
51
315
0
ENDSEC
0
EOF