0
SECTION
2
HEADER
9
$INSUNITS
70
4
0
ENDSEC
0
SECTION
2
TABLES
0
TABLE
2
LTYPE
0
LTYPE
72
65
70
64
2
CONTINUOUS
3
______
73
0
40
0
0
ENDTAB
0
TABLE
2
LAYER
0
ENDTAB
0
ENDSEC
0
SECTION
2
ENTITIES
0
LINE
8
0
10
-11.2318016
20
25.1166605
11
6.699703
21
26.6854639
0
LINE
8
0
10
6.699703
20
26.6854639
11
8.2685064
21
8.7539593
0
LINE
8
0
10
8.2685064
20
8.7539593
11
-9.6629982
21
7.1851559
0
LINE
8
0
10
-9.6629982
20
7.1851559
11
-11.2318016
21
25.1166605
0
LINE
8
0
10
-12.7134493
20
42.0519703
11
5.2180553
21
43.6207737
0
LINE
8
0
10
5.2180553
20
43.6207737
11
6.7868587
21
25.6892691
0
LINE
8
0
10
6.7868587
20
25.6892691
11
-11.1446459
21
24.1204657
0
LINE
8
0
10
-11.1446459
20
24.1204657
11
-12.7134493
21
42.0519703
0
LINE
8
0
10
-14.1950969
20
58.9872802
11
3.7364077
21
60.5560836
0
LINE
8
0
10
3.7364077
20
60.5560836
11
5.3052111
21
42.624579
0
LINE
8
0
10
5.3052111
20
42.624579
11
-12.6262935
21
41.0557756
0
LINE
8
0
10
-12.6262935
20
41.0557756
11
-14.1950969
21
58.9872802
0
LINE
8
0
10
7.6958976
20
26.7726196
11
25.6274022
21
28.341423
0
LINE
8
0
10
25.6274022
20
28.341423
11
27.1962056
21
10.4099184
0
LINE
8
0
10
27.1962056
20
10.4099184
11
9.264701
21
8.841115
0
LINE
8
0
10
9.264701
20
8.841115
11
7.6958976
21
26.7726196
0
LINE
8
0
10
6.21425
20
43.7079294
11
24.1457546
21
45.2767328
0
LINE
8
0
10
24.1457546
20
45.2767328
11
25.714558
21
27.3452282
0
LINE
8
0
10
25.714558
20
27.3452282
11
7.7830534
21
25.7764248
0
LINE
8
0
10
7.7830534
20
25.7764248
11
6.21425
21
43.7079294
0
LINE
8
0
10
4.7326024
20
60.6432393
11
22.664107
21
62.2120427
0
LINE
8
0
10
22.664107
20
62.2120427
11
24.2329104
21
44.2805381
0
LINE
8
0
10
24.2329104
20
44.2805381
11
6.3014058
21
42.7117347
0
LINE
8
0
10
6.3014058
20
42.7117347
11
4.7326024
21
60.6432393
0
LINE
8
0
10
27.5177155
20
33.9629578
11
45.5067504
21
34.5911487
0
LINE
8
0
10
45.5067504
20
34.5911487
11
46.1349413
21
16.6021138
0
LINE
8
0
10
46.1349413
20
16.6021138
11
28.1459064
21
15.9739229
0
LINE
8
0
10
28.1459064
20
15.9739229
11
27.5177155
21
33.9629578
0
LINE
8
0
10
26.9244241
20
50.9526019
11
44.913459
21
51.5807928
0
LINE
8
0
10
44.913459
20
51.5807928
11
45.5416499
21
33.5917579
0
LINE
8
0
10
45.5416499
20
33.5917579
11
27.552615
21
32.963567
0
LINE
8
0
10
27.552615
20
32.963567
11
26.9244241
21
50.9526019
0
LINE
8
0
10
26.3311327
20
67.9422459
11
44.3201676
21
68.5704368
0
LINE
8
0
10
44.3201676
20
68.5704368
11
44.9483585
21
50.5814019
0
LINE
8
0
10
44.9483585
20
50.5814019
11
26.9593236
21
49.953211
0
LINE
8
0
10
26.9593236
20
49.953211
11
26.3311327
21
67.9422459
0
LINE
8
0
10
47.5141839
20
45.1030021
11
65.5114424
21
44.7888588
0
LINE
8
0
10
65.5114424
20
44.7888588
11
65.1972991
21
26.7916003
0
LINE
8
0
10
65.1972991
20
26.7916003
11
47.2000406
21
27.1057436
0
LINE
8
0
10
47.2000406
20
27.1057436
11
47.5141839
21
45.1030021
0
LINE
8
0
10
47.8108748
20
62.1004129
11
65.8081333
21
61.7862696
0
LINE
8
0
10
65.8081333
20
61.7862696
11
65.49399
21
43.7890111
0
LINE
8
0
10
65.49399
20
43.7890111
11
47.4967315
21
44.1031544
0
LINE
8
0
10
47.4967315
20
44.1031544
11
47.8108748
21
62.1004129
0
LINE
8
0
10
48.1075657
20
79.0978237
11
66.1048242
21
78.7836804
0
LINE
8
0
10
66.1048242
20
78.7836804
11
65.7906809
21
60.7864219
0
LINE
8
0
10
65.7906809
20
60.7864219
11
47.7934224
21
61.1005652
0
LINE
8
0
10
47.7934224
20
61.1005652
11
48.1075657
21
79.0978237
0
LINE
8
0
10
66.4240281
20
39.7721679
11
84.4212866
21
39.4580246
0
LINE
8
0
10
84.4212866
20
39.4580246
11
84.1071433
21
21.4607661
0
LINE
8
0
10
84.1071433
20
21.4607661
11
66.1098848
21
21.7749094
0
LINE
8
0
10
66.1098848
20
21.7749094
11
66.4240281
21
39.7721679
0
LINE
8
0
10
66.720719
20
56.7695787
11
84.7179775
21
56.4554354
0
LINE
8
0
10
84.7179775
20
56.4554354
11
84.4038342
21
38.4581769
0
LINE
8
0
10
84.4038342
20
38.4581769
11
66.4065757
21
38.7723202
0
LINE
8
0
10
66.4065757
20
38.7723202
11
66.720719
21
56.7695787
0
LINE
8
0
10
67.0174099
20
73.7669895
11
85.0146684
21
73.4528462
0
LINE
8
0
10
85.0146684
20
73.4528462
11
84.7005251
21
55.4555877
0
LINE
8
0
10
84.7005251
20
55.4555877
11
66.7032666
21
55.769731
0
LINE
8
0
10
66.7032666
20
55.769731
11
67.0174099
21
73.7669895
0
LINE
8
0
10
85.4211343
20
39.4405722
11
103.4183928
21
39.1264289
0
LINE
8
0
10
103.4183928
20
39.1264289
11
103.1042495
21
21.1291704
0
LINE
8
0
10
103.1042495
20
21.1291704
11
85.106991
21
21.4433137
0
LINE
8
0
10
85.106991
20
21.4433137
11
85.4211343
21
39.4405722
0
LINE
8
0
10
85.7178253
20
56.437983
11
103.7150838
21
56.1238397
0
LINE
8
0
10
103.7150838
20
56.1238397
11
103.4009405
21
38.1265812
0
LINE
8
0
10
103.4009405
20
38.1265812
11
85.403682
21
38.4407245
0
LINE
8
0
10
85.403682
20
38.4407245
11
85.7178253
21
56.437983
0
LINE
8
0
10
86.0145162
20
73.4353938
11
104.0117747
21
73.1212505
0
LINE
8
0
10
104.0117747
20
73.1212505
11
103.6976314
21
55.123992
0
LINE
8
0
10
103.6976314
20
55.123992
11
85.7003729
21
55.4381353
0
LINE
8
0
10
85.7003729
20
55.4381353
11
86.0145162
21
73.4353938
0
LINE
8
0
10
105.2329532
20
39.9448852
11
123.2302117
21
39.6307419
0
LINE
8
0
10
123.2302117
20
39.6307419
11
122.9160684
21
21.6334834
0
LINE
8
0
10
122.9160684
20
21.6334834
11
104.9188099
21
21.9476267
0
LINE
8
0
10
104.9188099
20
21.9476267
11
105.2329532
21
39.9448852
0
LINE
8
0
10
92.7248107
20
20.3328992
11
110.0275213
21
15.3714268
0
LINE
8
0
10
110.0275213
20
15.3714268
11
105.0660489
21
-1.9312838
0
LINE
8
0
10
105.0660489
20
-1.9312838
11
87.7633383
21
3.0301886
0
LINE
8
0
10
87.7633383
20
3.0301886
11
92.7248107
21
20.3328992
0
LINE
8
0
10
105.0457443
20
-3.6425466
11
118.9517723
21
19.5009705
0
LINE
8
0
10
118.9517723
20
19.5009705
11
134.3807837
21
10.2302852
0
LINE
8
0
10
134.3807837
20
10.2302852
11
120.4747557
21
-12.9132319
0
LINE
8
0
10
120.4747557
20
-12.9132319
11
105.0457443
21
-3.6425466
0
LINE
8
0
10
121.4909463
20
-12.6490864
11
133.3000088
21
0.9356861
0
LINE
8
0
10
133.3000088
20
0.9356861
11
146.8847813
21
-10.8733764
0
LINE
8
0
10
146.8847813
20
-10.8733764
11
135.0757188
21
-24.4581489
0
LINE
8
0
10
135.0757188
20
-24.4581489
11
121.4909463
21
-12.6490864
0
ENDSEC
0
EOF