0
SECTION
2
HEADER
9
$INSUNITS
70
4
0
ENDSEC
0
SECTION
2
TABLES
0
TABLE
2
LTYPE
0
LTYPE
72
65
70
64
2
CONTINUOUS
3
______
73
0
40
0
0
ENDTAB
0
TABLE
2
LAYER
0
ENDTAB
0
ENDSEC
0
SECTION
2
ENTITIES
0
LINE
8
0
10
-9
20
28.38
11
9
21
28.38
0
LINE
8
0
10
9
20
28.38
11
9
21
10.38
0
LINE
8
0
10
9
20
10.38
11
-9
21
10.38
0
LINE
8
0
10
-9
20
10.38
11
-9
21
28.38
0
LINE
8
0
10
-9
20
47.76
11
9
21
47.76
0
LINE
8
0
10
9
20
47.76
11
9
21
29.76
0
LINE
8
0
10
9
20
29.76
11
-9
21
29.76
0
LINE
8
0
10
-9
20
29.76
11
-9
21
47.76
0
LINE
8
0
10
-9
20
67.14
11
9
21
67.14
0
LINE
8
0
10
9
20
67.14
11
9
21
49.14
0
LINE
8
0
10
9
20
49.14
11
-9
21
49.14
0
LINE
8
0
10
-9
20
49.14
11
-9
21
67.14
0
LINE
8
0
10
11.52
20
28.55
11
29.52
21
28.55
0
LINE
8
0
10
29.52
20
28.55
11
29.52
21
10.55
0
LINE
8
0
10
29.52
20
10.55
11
11.52
21
10.55
0
LINE
8
0
10
11.52
20
10.55
11
11.52
21
28.55
0
LINE
8
0
10
11.52
20
47.93
11
29.52
21
47.93
0
LINE
8
0
10
29.52
20
47.93
11
29.52
21
29.93
0
LINE
8
0
10
29.52
20
29.93
11
11.52
21
29.93
0
LINE
8
0
10
11.52
20
29.93
11
11.52
21
47.93
0
LINE
8
0
10
11.52
20
67.31
11
29.52
21
67.31
0
LINE
8
0
10
29.52
20
67.31
11
29.52
21
49.31
0
LINE
8
0
10
29.52
20
49.31
11
11.52
21
49.31
0
LINE
8
0
10
11.52
20
49.31
11
11.52
21
67.31
0
LINE
8
0
10
11.52
20
86.69
11
29.52
21
86.69
0
LINE
8
0
10
29.52
20
86.69
11
29.52
21
68.69
0
LINE
8
0
10
29.52
20
68.69
11
11.52
21
68.69
0
LINE
8
0
10
11.52
20
68.69
11
11.52
21
86.69
0
LINE
8
0
10
32.1984424
20
35.5057009
11
50.1957009
21
35.1915576
0
LINE
8
0
10
50.1957009
20
35.1915576
11
49.8815576
21
17.1942991
0
LINE
8
0
10
49.8815576
20
17.1942991
11
31.8842991
21
17.5084424
0
LINE
8
0
10
31.8842991
20
17.5084424
11
32.1984424
21
35.5057009
0
LINE
8
0
10
32.53667
20
54.8827492
11
50.5339285
21
54.5686059
0
LINE
8
0
10
50.5339285
20
54.5686059
11
50.2197852
21
36.5713474
0
LINE
8
0
10
50.2197852
20
36.5713474
11
32.2225267
21
36.8854907
0
LINE
8
0
10
32.2225267
20
36.8854907
11
32.53667
21
54.8827492
0
LINE
8
0
10
32.8748976
20
74.2597975
11
50.8721561
21
73.9456542
0
LINE
8
0
10
50.8721561
20
73.9456542
11
50.5580128
21
55.9483957
0
LINE
8
0
10
50.5580128
20
55.9483957
11
32.5607543
21
56.262539
0
LINE
8
0
10
32.5607543
20
56.262539
11
32.8748976
21
74.2597975
0
LINE
8
0
10
33.2131252
20
93.6368458
11
51.2103837
21
93.3227025
0
LINE
8
0
10
51.2103837
20
93.3227025
11
50.8962404
21
75.325444
0
LINE
8
0
10
50.8962404
20
75.325444
11
32.8989819
21
75.6395873
0
LINE
8
0
10
32.8989819
20
75.6395873
11
33.2131252
21
93.6368458
0
LINE
8
0
10
53.1589089
20
42.2495303
11
71.1342405
21
41.3074831
0
LINE
8
0
10
71.1342405
20
41.3074831
11
70.1921933
21
23.3321515
0
LINE
8
0
10
70.1921933
20
23.3321515
11
52.2168617
21
24.2741987
0
LINE
8
0
10
52.2168617
20
24.2741987
11
53.1589089
21
42.2495303
0
LINE
8
0
10
54.1731797
20
61.6029707
11
72.1485113
21
60.6609235
0
LINE
8
0
10
72.1485113
20
60.6609235
11
71.2064641
21
42.6855919
0
LINE
8
0
10
71.2064641
20
42.6855919
11
53.2311325
21
43.6276391
0
LINE
8
0
10
53.2311325
20
43.6276391
11
54.1731797
21
61.6029707
0
LINE
8
0
10
55.1874505
20
80.9564111
11
73.1627821
21
80.0143639
0
LINE
8
0
10
73.1627821
20
80.0143639
11
72.2207349
21
62.0390323
0
LINE
8
0
10
72.2207349
20
62.0390323
11
54.2454033
21
62.9810795
0
LINE
8
0
10
54.2454033
20
62.9810795
11
55.1874505
21
80.9564111
0
LINE
8
0
10
56.2017213
20
100.3098515
11
74.1770529
21
99.3678043
0
LINE
8
0
10
74.1770529
20
99.3678043
11
73.2350057
21
81.3924727
0
LINE
8
0
10
73.2350057
20
81.3924727
11
55.2596741
21
82.3345199
0
LINE
8
0
10
55.2596741
20
82.3345199
11
56.2017213
21
100.3098515
0
LINE
8
0
10
73.6392187
20
37.9274514
11
91.5953716
21
36.6718349
0
LINE
8
0
10
91.5953716
20
36.6718349
11
90.3397551
21
18.715682
0
LINE
8
0
10
90.3397551
20
18.715682
11
72.3836022
21
19.9712985
0
LINE
8
0
10
72.3836022
20
19.9712985
11
73.6392187
21
37.9274514
0
LINE
8
0
10
74.9910992
20
57.2602427
11
92.9472521
21
56.0046262
0
LINE
8
0
10
92.9472521
20
56.0046262
11
91.6916356
21
38.0484733
0
LINE
8
0
10
91.6916356
20
38.0484733
11
73.7354827
21
39.3040898
0
LINE
8
0
10
73.7354827
20
39.3040898
11
74.9910992
21
57.2602427
0
LINE
8
0
10
76.3429797
20
76.593034
11
94.2991326
21
75.3374175
0
LINE
8
0
10
94.2991326
20
75.3374175
11
93.0435161
21
57.3812646
0
LINE
8
0
10
93.0435161
20
57.3812646
11
75.0873632
21
58.6368811
0
LINE
8
0
10
75.0873632
20
58.6368811
11
76.3429797
21
76.593034
0
LINE
8
0
10
77.6948602
20
95.9258253
11
95.6510131
21
94.6702088
0
LINE
8
0
10
95.6510131
20
94.6702088
11
94.3953966
21
76.7140559
0
LINE
8
0
10
94.3953966
20
76.7140559
11
76.4392437
21
77.9696724
0
LINE
8
0
10
76.4392437
20
77.9696724
11
77.6948602
21
95.9258253
0
LINE
8
0
10
94.109233
20
36.4960486
11
112.0653859
21
35.2404321
0
LINE
8
0
10
112.0653859
20
35.2404321
11
110.8097694
21
17.2842792
0
LINE
8
0
10
110.8097694
20
17.2842792
11
92.8536165
21
18.5398957
0
LINE
8
0
10
92.8536165
20
18.5398957
11
94.109233
21
36.4960486
0
LINE
8
0
10
95.4611135
20
55.8288399
11
113.4172664
21
54.5732234
0
LINE
8
0
10
113.4172664
20
54.5732234
11
112.1616499
21
36.6170705
0
LINE
8
0
10
112.1616499
20
36.6170705
11
94.205497
21
37.872687
0
LINE
8
0
10
94.205497
20
37.872687
11
95.4611135
21
55.8288399
0
LINE
8
0
10
96.812994
20
75.1616312
11
114.7691469
21
73.9060147
0
LINE
8
0
10
114.7691469
20
73.9060147
11
113.5135304
21
55.9498618
0
LINE
8
0
10
113.5135304
20
55.9498618
11
95.5573775
21
57.2054783
0
LINE
8
0
10
95.5573775
20
57.2054783
11
96.812994
21
75.1616312
0
LINE
8
0
10
98.1648745
20
94.4944225
11
116.1210274
21
93.238806
0
LINE
8
0
10
116.1210274
20
93.238806
11
114.8654109
21
75.2826531
0
LINE
8
0
10
114.8654109
20
75.2826531
11
96.909258
21
76.5382696
0
LINE
8
0
10
96.909258
20
76.5382696
11
98.1648745
21
94.4944225
0
LINE
8
0
10
121.0434624
20
34.6126238
11
138.9996153
21
33.3570073
0
LINE
8
0
10
138.9996153
20
33.3570073
11
137.7439988
21
15.4008544
0
LINE
8
0
10
137.7439988
20
15.4008544
11
119.7878459
21
16.6564709
0
LINE
8
0
10
119.7878459
20
16.6564709
11
121.0434624
21
34.6126238
0
LINE
8
0
10
72.2754796
20
18.4250742
11
90.2316325
21
17.1694577
0
LINE
8
0
10
90.2316325
20
17.1694577
11
88.976016
21
-0.7866952
0
LINE
8
0
10
88.976016
20
-0.7866952
11
71.0198631
21
0.4689213
0
LINE
8
0
10
71.0198631
20
0.4689213
11
72.2754796
21
18.4250742
0
LINE
8
0
10
96.4720299
20
15.2446886
11
113.5910472
21
9.6823827
0
LINE
8
0
10
113.5910472
20
9.6823827
11
108.0287413
21
-7.4366346
0
LINE
8
0
10
108.0287413
20
-7.4366346
11
90.909724
21
-1.8743287
0
LINE
8
0
10
90.909724
20
-1.8743287
11
96.4720299
21
15.2446886
0
LINE
8
0
10
107.275173
20
-11.5947251
11
121.9013722
21
9.293652
0
LINE
8
0
10
121.9013722
20
9.293652
11
136.646109
21
-1.0307239
0
LINE
8
0
10
136.646109
20
-1.0307239
11
122.0199098
21
-21.919101
0
LINE
8
0
10
122.0199098
20
-21.919101
11
107.275173
21
-11.5947251
0
LINE
8
0
10
125.1984725
20
-20.2487402
11
137.9263946
21
-7.5208181
0
LINE
8
0
10
137.9263946
20
-7.5208181
11
150.6543167
21
-20.2487402
0
LINE
8
0
10
150.6543167
20
-20.2487402
11
137.9263946
21
-32.9766623
0
LINE
8
0
10
137.9263946
20
-32.9766623
11
125.1984725
21
-20.2487402
0
ENDSEC
0
EOF