0
SECTION
2
HEADER
9
$INSUNITS
70
4
0
ENDSEC
0
SECTION
2
TABLES
0
TABLE
2
LTYPE
0
LTYPE
72
65
70
64
2
CONTINUOUS
3
______
73
0
40
0
0
ENDTAB
0
TABLE
2
LAYER
0
ENDTAB
0
ENDSEC
0
SECTION
2
ENTITIES
0
LINE
8
0
10
20.2304558
20
87.19
11
12.52
21
87.19
0
ARC
8
0
10
12.52
20
85.19
40
2
50
90
51
180
0
LINE
8
0
10
10.52
20
85.19
11
10.52
21
82.988963
0
LINE
8
0
10
78.6961816
20
99.6149632
11
113.675659
21
97.16896
0
LINE
8
0
10
139.5819047
20
45.9523153
11
143.5404122
21
37.2454898
0
LINE
8
0
10
143.7148751
20
36.278222
11
142.1749066
21
14.2556469
0
ARC
8
0
10
141.719747
20
36.417735
40
2
50
355.9999987
51
24.4486416
0
LINE
8
0
10
-13.5
20
8.6379189
11
-13.5
21
69.658017
0
LINE
8
0
10
-12.3997157
20
71.4442173
11
10.52
21
82.988963
0
LINE
8
0
10
21.2749712
20
87.3777078
11
28.815155
21
90.178213
0
LINE
8
0
10
29.8778187
20
91.1012903
11
32.7000763
21
96.3171483
0
LINE
8
0
10
34.4939884
20
97.3650595
11
50.2406661
21
97.0902003
0
LINE
8
0
10
51.8882056
20
97.9069292
11
55.7591849
21
103.1838973
0
LINE
8
0
10
57.4764916
20
103.99819
11
76.8698867
21
102.9818252
0
LINE
8
0
10
78.7624738
20
100.8798941
11
78.6961816
21
99.6149632
0
LINE
8
0
10
60.086303
20
20.1066324
11
53.5730561
21
20.4479772
0
LINE
8
0
10
51.5587037
20
19.0449579
11
50.2615925
21
14.8764928
0
LINE
8
0
10
48.3170073
20
13.4710372
11
33.2909867
21
13.7333173
0
LINE
8
0
10
31.3570179
20
12.3609621
11
29.9715624
21
8.1669554
0
LINE
8
0
10
28.0804016
20
6.7943112
11
-11.4920968
21
6.6379345
0
ARC
8
0
10
-11.5
20
69.658017
40
2
50
116.7345659
51
180
0
ARC
8
0
10
28.1188114
20
92.0530745
40
2
50
290.3755358
51
331.5825503
0
ARC
8
0
10
34.4590836
20
95.3653641
40
2
50
89.0000004
51
151.5825503
0
ARC
8
0
10
50.2755709
20
99.0898957
40
2
50
269.0000004
51
323.7376679
0
ARC
8
0
10
57.3718195
20
102.0009309
40
2
50
86.9999974
51
143.7376679
0
ARC
8
0
10
76.7652147
20
100.9845661
40
2
50
356.9999974
51
86.9999974
0
ARC
8
0
10
53.4683841
20
18.4507181
40
2
50
86.9999974
51
162.7153009
0
ARC
8
0
10
48.3519121
20
15.4707326
40
2
50
269.0000004
51
342.7153009
0
ARC
8
0
10
33.2560819
20
11.7336219
40
2
50
89.0000004
51
161.7194519
0
ARC
8
0
10
28.0724984
20
8.7942956
40
2
50
270.2264106
51
341.7194519
0
ARC
8
0
10
-11.5
20
8.6379189
40
2
50
180
51
270.2264106
0
LINE
8
0
10
142.1749066
20
14.2556469
11
143.1745945
21
13.1698864
0
LINE
8
0
10
143.7779495
20
12.1875807
11
155.8129729
21
-20.0326826
0
LINE
8
0
10
155.1239437
20
-23.2037344
11
140.9950748
21
-37.3326033
0
LINE
8
0
10
137.619138
20
-37.9363402
11
66.2629449
21
-5.0839453
0
LINE
8
0
10
64.5272534
20
-2.5998406
11
62.919603
21
17.3516963
0
ARC
8
0
10
140.9676
20
11.1378492
40
3
50
20.4818397
51
42.636576
0
ARC
8
0
10
153.0026234
20
-21.0824141
40
3
50
315
51
20.4818397
0
ARC
8
0
10
138.8737545
20
-35.211283
40
3
50
245.278654
51
315
0
ARC
8
0
10
67.5175614
20
-2.358888
40
3
50
184.606816
51
245.278654
0
LINE
8
0
10
139.3202104
20
47.4032171
11
142.5398652
21
93.4464268
0
ARC
8
0
10
140.5447371
20
93.5859397
40
2
50
356
51
86
0
LINE
8
0
10
140.6842501
20
95.5810678
11
114.7475848
21
97.3947361
0
ARC
8
0
10
114.6080718
20
95.399608
40
2
50
86
51
117.7883257
0
ARC
8
0
10
59.929295
20
17.1107438
40
3
50
4.606816
51
86.9999974
0
ARC
8
0
10
142.3129026
20
47.1939476
40
3
50
175.9999987
51
204.4486416
0
ARC
8
0
10
20.2304558
20
90.19
40
3
50
270
51
290.3755358
0
ENDSEC
0
EOF